<svg width="314" height="184" viewBox="0 0 314 184" fill="none" xmlns="http://www.w3.org/2000/svg">
<path d="M144.628 65.7232C142.417 67.9343 142.417 71.6046 144.628 73.8598L160.902 90.1331C163.157 92.3883 166.783 92.3883 169.038 90.1331C171.249 87.922 171.249 84.2517 169.038 81.9965L152.765 65.7232C150.554 63.5122 146.884 63.5122 144.628 65.7232Z" fill="white"/>
<path d="M199.949 59.2229C202.204 56.9676 202.204 53.3415 199.949 51.0863C197.738 48.8752 194.068 48.8752 191.812 51.0863L169.039 73.86C166.783 76.1152 167.181 75.7172 164.97 77.9282C159.929 82.9694 153.031 82.1735 150.776 79.9624L160.902 90.089C163.113 92.3 166.783 92.3 169.039 90.089L199.949 59.2229Z" fill="white"/>
<path d="M232.583 51.2186C230.372 49.0075 226.702 49.0075 224.447 51.2186L208.218 67.4918C205.962 69.7471 205.962 73.3732 208.218 75.6284C210.429 77.8395 214.099 77.8395 216.354 75.6284L232.627 59.3552C234.794 57.0999 234.794 53.4296 232.583 51.2186Z" fill="white"/>
<path d="M169.17 57.6748C171.381 55.4637 171.381 51.7934 169.17 49.5382L152.897 33.2649C150.642 31.0097 147.016 31.0097 144.76 33.2649C142.549 35.476 142.549 39.1463 144.76 41.4015L161.034 57.6748C163.289 59.8858 166.915 59.8858 169.17 57.6748Z" fill="white"/>
<path d="M113.85 64.2195C111.595 66.4747 111.595 70.1008 113.85 72.3561C116.061 74.5671 119.731 74.5671 121.987 72.3561L144.76 49.5382C147.016 47.2829 146.618 47.6809 148.829 45.4699C153.87 40.4287 160.768 41.2247 163.024 43.4357L152.897 33.3092C150.686 31.0981 147.016 31.0981 144.76 33.3092L113.85 64.2195Z" fill="white"/>
<path d="M81.4363 72.2676C83.6473 74.4786 87.3177 74.4786 89.5729 72.2676L105.846 55.9944C108.101 53.7391 108.101 50.113 105.846 47.8577C103.635 45.6467 99.9648 45.6467 97.7095 47.8577L81.4363 64.131C79.2253 66.3862 79.2253 70.0123 81.4363 72.2676Z" fill="white"/>
<path d="M31.5735 118.99H38.758V144.35H53.936V150.726H31.5735V118.99Z" fill="white"/>
<path d="M58.1513 118.99H65.3358V150.726H58.1513V118.99Z" fill="white"/>
<path d="M87.9481 133.264H100.176V147.015C98.5267 148.442 96.5918 149.552 94.3714 150.345C92.1827 151.107 89.6768 151.487 86.8538 151.487C84.2527 151.487 81.9213 151.091 79.8595 150.298C77.8295 149.473 76.1007 148.331 74.6733 146.872C73.2459 145.413 72.1516 143.668 71.3903 141.638C70.6608 139.608 70.296 137.372 70.296 134.929C70.296 132.55 70.6925 130.346 71.4855 128.316C72.2785 126.286 73.4046 124.525 74.8637 123.035C76.3228 121.512 78.0515 120.322 80.0499 119.466C82.0482 118.61 84.2686 118.181 86.711 118.181C89.5975 118.181 92.1193 118.721 94.2762 119.799C96.4649 120.846 98.2729 122.321 99.7003 124.224L94.8472 128.839C93.8321 127.634 92.7061 126.651 91.469 125.889C90.2637 125.128 88.7728 124.747 86.9965 124.747C85.5374 124.747 84.2369 125.017 83.095 125.556C81.9531 126.096 80.9856 126.825 80.1926 127.745C79.3996 128.665 78.7969 129.743 78.3846 130.98C77.9722 132.217 77.766 133.534 77.766 134.929C77.766 136.452 78.0039 137.832 78.4797 139.069C78.9555 140.306 79.6216 141.369 80.4781 142.257C81.3345 143.113 82.3337 143.779 83.4756 144.255C84.6492 144.731 85.918 144.969 87.282 144.969C88.5508 144.969 89.7086 144.826 90.7553 144.541C91.8021 144.223 92.7378 143.732 93.5625 143.066V139.069H87.9481V133.264Z" fill="white"/>
<path d="M105.917 118.99H113.101V131.171H126.852V118.99H134.037V150.726H126.852V137.689H113.101V150.726H105.917V118.99Z" fill="white"/>
<path d="M148.392 125.318H138.114V118.99H165.853V125.318H155.624V150.726H148.392V125.318Z" fill="white"/>
<path d="M169.945 118.99H177.13V144.35H192.308V150.726H169.945V118.99Z" fill="white"/>
<path d="M196.523 118.99H203.708V150.726H196.523V118.99Z" fill="white"/>
<path d="M209.905 118.99H216.756L230.507 139.592V118.99H237.596V150.726H231.078L216.994 129.743V150.726H209.905V118.99Z" fill="white"/>
<path d="M243.778 118.99H250.962V131.646L261.572 118.99H269.899L259.003 131.361L271.374 150.726H262.667L254.197 136.88L250.962 140.496V150.726H243.778V118.99Z" fill="white"/>
<path d="M274.671 143.161H282.426V150.726H274.671V143.161Z" fill="white"/>
</svg>
